<svg viewBox="0 0 262 64" xmlns="http://www.w3.org/2000/svg" role="img" aria-label="atmina.lv">
  <!-- Horizontal lockup for header / OG (dark background version) -->
  <circle cx="27" cy="27" r="17" fill="none" stroke="#90A4AE" stroke-width="5"/>
  <line x1="40.4" y1="40.4" x2="51.5" y2="51.5" stroke="#90A4AE" stroke-width="5" stroke-linecap="round"/>
  <g fill="none" stroke="#B71C1C" stroke-width="1.9" stroke-linecap="round">
    <path d="M28.09 30.01 A3.2 3.2 0 1 1 29.06 29.45"/>
    <path d="M21.63 30.1 A6.2 6.2 0 1 1 32.37 30.1"/>
    <path d="M19.03 31.6 A9.2 9.2 0 1 1 34.97 31.6"/>
    <path d="M14.98 29.12 A12.2 12.2 0 0 1 23.84 15.21"/>
    <path d="M30.16 15.21 A12.2 12.2 0 0 1 39.01 29.12"/>
    <path d="M34 37 A12.2 12.2 0 0 1 20 37"/>
  </g>
  <text x="74" y="43" font-family="-apple-system, 'Segoe UI', Roboto, sans-serif"
        font-size="34" font-weight="700" letter-spacing="-0.5"><tspan fill="#E2E4E9">atmina</tspan><tspan fill="#B71C1C">.lv</tspan></text>
</svg>
